<svg width="1599" height="800" viewBox="0 0 1599 800" fill="none" xmlns="http://www.w3.org/2000/svg">
<g clip-path="url(#clip0_276_29)">
<mask id="mask0_276_29" style="mask-type:luminance" maskUnits="userSpaceOnUse" x="0" y="0" width="1599" height="800">
<path d="M0 0H1599V800H0V0Z" fill="white"/>
</mask>
<g mask="url(#mask0_276_29)">
<mask id="mask1_276_29" style="mask-type:luminance" maskUnits="userSpaceOnUse" x="70" y="0" width="1458" height="729">
<path d="M70 0H1528V729H70V0Z" fill="url(#paint0_radial_276_29)"/>
</mask>
<g mask="url(#mask1_276_29)">
<path fill-rule="evenodd" clip-rule="evenodd" d="M130.294 382.269V328.506H70V327.594H130.294V273.831H70V272.919H130.294V219.156H70V218.244H130.294V164.481H70V163.569H130.294V109.806H70V108.894H130.294V55.1305H70V54.2193H130.294V0H131.206V54.2193H191.044V0H191.955V54.2193H251.794V0H252.706V54.2193H312.545V0H313.456V54.2193L373.294 54.2194V0H374.205V54.2194H434.044V0H434.956V54.2194H494.795V0H495.706V54.2194H555.544V0H556.455V54.2194H616.294V0H617.206V54.2194H677.045V0H677.956V54.2194H737.794V0H738.705V54.2194H798.544V0H799.456V54.2194H859.295V0H860.206V54.2194H920.044V0H920.955V54.2194H980.794V0H981.706V54.2194H1041.55V0H1042.46V54.2194H1102.29V0H1103.2V54.2194H1163.04V0H1163.96V54.2194H1223.8V0H1224.71V54.2194H1284.54V0H1285.45V54.2194H1345.29V0H1346.21V54.2194H1406.05V0H1406.96V54.2194H1466.79V0H1467.7V54.2194H1528V55.1306H1467.7V108.894H1528V109.806H1467.7V163.569H1528V164.481H1467.7V218.244H1528V219.156H1467.7V272.919H1528V273.831H1467.7V327.594H1528V328.506H1467.7V382.269H1528V383.181H1467.7V436.944H1528V437.856H1467.7V491.619H1528V492.531H1467.7V546.294H1528V547.206H1467.7V600.969H1528V601.881H1467.7V655.644H1528V656.556H1467.7V710.319H1528V711.231H1467.7V764.994H1528V765.906H1467.7V819.669H1528V820.581H1467.7V874.344H1528V875.256H1467.7V929.019H1528V929.931H1467.7V983.694H1528V984.606H1467.7V1038.37H1528V1039.28H1467.7V1093.04H1528V1093.96H1467.7V1147.72H1528V1148.63H1467.7V1202.39H1528V1203.31H1467.7V1257.07H1528V1257.98H1467.7V1312.2H1466.79V1257.98H1406.96V1312.2H1406.05V1257.98H1346.21V1312.2H1345.29V1257.98H1285.45V1312.2H1284.54V1257.98H1224.71V1312.2H1223.8V1257.98H1163.96V1312.2H1163.04V1257.98H1103.2V1312.2H1102.29V1257.98H1042.46V1312.2H1041.55V1257.98H981.706V1312.2H980.794V1257.98H920.955V1312.2H920.044V1257.98H860.206V1312.2H859.295V1257.98H799.456V1312.2H798.544V1257.98H738.705V1312.2H737.794V1257.98H677.956V1312.2H677.045V1257.98H617.206V1312.2H616.294V1257.98H556.455V1312.2H555.544V1257.98H495.706V1312.2H494.795V1257.98H434.956V1312.2H434.044V1257.98H374.205V1312.2H373.294V1257.98H313.456V1312.2H312.545V1257.98H252.706V1312.2H251.794V1257.98H191.955V1312.2H191.044V1257.98H131.206V1312.2H130.294V1257.98H70V1257.07H130.294V1203.31H70V1202.39H130.294V1148.63H70V1147.72H130.294V1093.96H70V1093.04H130.294V1039.28H70V1038.37H130.294V984.606H70V983.694H130.294V929.931H70V929.019H130.294V875.256H70V874.344H130.294V820.581H70V819.669H130.294V765.906H70V764.994H130.294V711.231H70V710.319H130.294V656.556H70V655.644H130.294V601.881H70V600.969H130.294V547.206H70V546.294H130.294V492.531H70V491.619H130.294V437.856H70V436.944H130.294V383.181H70V382.269H130.294ZM131.206 1148.63V1202.39H191.044V1148.63H131.206ZM191.044 1147.72H131.206V1093.96H191.044V1147.72ZM191.955 1148.63V1202.39H251.794V1148.63H191.955ZM251.794 1147.72H191.955V1093.96H251.794V1147.72ZM252.706 1148.63V1202.39H312.545V1148.63H252.706ZM312.545 1147.72H252.706V1093.96H312.545V1147.72ZM313.456 1148.63V1202.39H373.294V1148.63H313.456ZM373.294 1147.72H313.456V1093.96H373.294V1147.72ZM374.205 1148.63V1202.39H434.044V1148.63H374.205ZM434.044 1147.72H374.205V1093.96H434.044V1147.72ZM434.956 1148.63V1202.39H494.795V1148.63H434.956ZM494.795 1147.72H434.956V1093.96H494.795V1147.72ZM495.706 1148.63V1202.39H555.544V1148.63H495.706ZM555.544 1147.72H495.706V1093.96H555.544V1147.72ZM556.455 1148.63V1202.39H616.294V1148.63H556.455ZM616.294 1147.72H556.455V1093.96H616.294V1147.72ZM617.206 1148.63V1202.39H677.045V1148.63H617.206ZM677.045 1147.72H617.206V1093.96H677.045V1147.72ZM677.956 1148.63V1202.39H737.794V1148.63H677.956ZM737.794 1147.72H677.956V1093.96H737.794V1147.72ZM738.705 1148.63V1202.39H798.544V1148.63H738.705ZM798.544 1147.72H738.705V1093.96H798.544V1147.72ZM799.456 1148.63V1202.39H859.295V1148.63H799.456ZM859.295 1147.72H799.456V1093.96H859.295V1147.72ZM860.206 1148.63V1202.39H920.044V1148.63H860.206ZM920.044 1147.72H860.206V1093.96H920.044V1147.72ZM920.955 1148.63V1202.39H980.794V1148.63H920.955ZM980.794 1147.72H920.955V1093.96H980.794V1147.72ZM981.706 1148.63V1202.39H1041.55V1148.63H981.706ZM1041.55 1147.72H981.706V1093.96H1041.55V1147.72ZM1042.46 1148.63V1202.39H1102.29V1148.63H1042.46ZM1102.29 1147.72H1042.46V1093.96H1102.29V1147.72ZM1103.2 1148.63V1202.39H1163.04V1148.63H1103.2ZM1163.04 1147.72H1103.2V1093.96H1163.04V1147.72ZM1163.96 1148.63V1202.39H1223.8V1148.63H1163.96ZM1223.8 1147.72H1163.96V1093.96H1223.8V1147.72ZM1224.71 1148.63V1202.39H1284.54V1148.63H1224.71ZM1284.54 1147.72H1224.71V1093.96H1284.54V1147.72ZM1285.45 1148.63V1202.39H1345.29V1148.63H1285.45ZM1345.29 1147.72H1285.45V1093.96H1345.29V1147.72ZM1346.21 1148.63V1202.39H1406.05V1148.63H1346.21ZM1406.05 1147.72H1346.21V1093.96H1406.05V1147.72ZM1406.96 1148.63V1202.39H1466.79V1148.63H1406.96ZM1466.79 1147.72H1406.96V1093.96H1466.79V1147.72ZM1466.79 765.906V819.669H1406.96V765.906H1466.79ZM1406.05 765.906V819.669H1346.21V765.906H1406.05ZM1406.05 820.581H1346.21V874.344H1406.05V820.581ZM1345.29 765.906V819.669H1285.45V765.906H1345.29ZM1345.29 820.581H1285.45V874.344H1345.29V820.581ZM1284.54 765.906V819.669H1224.71V765.906H1284.54ZM1284.54 820.581H1224.71V874.344H1284.54V820.581ZM1223.8 765.906V819.669H1163.96V765.906H1223.8ZM1223.8 820.581H1163.96V874.344H1223.8V820.581ZM1163.04 765.906V819.669H1103.2V765.906H1163.04ZM1163.04 820.581H1103.2V874.344H1163.04V820.581ZM1102.29 765.906V819.669H1042.46V765.906H1102.29ZM1102.29 820.581H1042.46V874.344H1102.29V820.581ZM1041.55 765.906V819.669H981.706V765.906H1041.55ZM1041.55 820.581H981.706V874.344H1041.55V820.581ZM980.794 765.906V819.669H920.955V765.906H980.794ZM980.794 820.581H920.955V874.344H980.794V820.581ZM920.044 765.906V819.669H860.206V765.906H920.044ZM920.044 820.581H860.206V874.344H920.044V820.581ZM859.295 765.906V819.669H799.456V765.906H859.295ZM859.295 820.581H799.456V874.344H859.295V820.581ZM798.544 765.906V819.669H738.705V765.906H798.544ZM798.544 820.581H738.705V874.344H798.544V820.581ZM737.794 765.906V819.669H677.956V765.906H737.794ZM737.794 820.581H677.956V874.344H737.794V820.581ZM677.045 765.906V819.669H617.206V765.906H677.045ZM677.045 820.581H617.206V874.344H677.045V820.581ZM616.294 765.906V819.669H556.455V765.906H616.294ZM616.294 820.581H556.455V874.344H616.294V820.581ZM555.544 765.906V819.669H495.706V765.906H555.544ZM555.544 820.581H495.706V874.344H555.544V820.581ZM494.795 765.906V819.669H434.956V765.906H494.795ZM494.795 820.581H434.956V874.344H494.795V820.581ZM434.044 765.906V819.669H374.205V765.906H434.044ZM434.044 820.581H374.205V874.344H434.044V820.581ZM373.294 765.906V819.669H313.456V765.906H373.294ZM373.294 820.581H313.456V874.344H373.294V820.581ZM312.545 765.906V819.669H252.706V765.906H312.545ZM312.545 820.581H252.706V874.344H312.545V820.581ZM251.794 765.906V819.669H191.955V765.906H251.794ZM251.794 820.581H191.955V874.344H251.794V820.581ZM191.044 765.906V819.669H131.206V765.906H191.044ZM191.044 820.581H131.206V874.344H191.044V820.581ZM1466.79 820.581H1406.96V874.344H1466.79V820.581ZM131.206 383.181V436.944H191.044V383.181H131.206ZM191.044 382.269H131.206V328.506H191.044V382.269ZM191.955 383.181V436.944H251.794V383.181H191.955ZM251.794 382.269H191.955V328.506H251.794V382.269ZM252.706 383.181V436.944H312.545V383.181H252.706ZM312.545 382.269H252.706V328.506H312.545V382.269ZM313.456 383.181V436.944H373.294V383.181H313.456ZM373.294 382.269H313.456V328.506H373.294V382.269ZM374.205 383.181V436.944H434.044V383.181H374.205ZM434.044 382.269H374.205V328.506H434.044V382.269ZM434.956 383.181V436.944H494.795V383.181H434.956ZM494.795 382.269H434.956V328.506H494.795V382.269ZM495.706 383.181V436.944H555.544V383.181H495.706ZM555.544 382.269H495.706V328.506H555.544V382.269ZM556.455 383.181V436.944H616.294V383.181H556.455ZM616.294 382.269H556.455V328.506H616.294V382.269ZM617.206 383.181V436.944H677.045V383.181H617.206ZM677.045 382.269H617.206V328.506H677.045V382.269ZM677.956 383.181V436.944H737.794V383.181H677.956ZM737.794 382.269H677.956V328.506H737.794V382.269ZM738.705 383.181V436.944H798.544V383.181H738.705ZM798.544 382.269H738.705V328.506H798.544V382.269ZM799.456 383.181V436.944H859.295V383.181H799.456ZM859.295 382.269H799.456V328.506H859.295V382.269ZM860.206 383.181V436.944H920.044V383.181H860.206ZM920.044 382.269H860.206V328.506H920.044V382.269ZM920.955 383.181V436.944H980.794V383.181H920.955ZM980.794 382.269H920.955V328.506H980.794V382.269ZM981.706 383.181V436.944H1041.55V383.181H981.706ZM1041.55 382.269H981.706V328.506H1041.55V382.269ZM1042.46 383.181V436.944H1102.29V383.181H1042.46ZM1102.29 382.269H1042.46V328.506H1102.29V382.269ZM1103.2 383.181V436.944H1163.04V383.181H1103.2ZM1163.04 382.269H1103.2V328.506H1163.04V382.269ZM1163.96 383.181V436.944H1223.8V383.181H1163.96ZM1223.8 382.269H1163.96V328.506H1223.8V382.269ZM1224.71 383.181V436.944H1284.54V383.181H1224.71ZM1284.54 382.269H1224.71V328.506H1284.54V382.269ZM1285.45 383.181V436.944H1345.29V383.181H1285.45ZM1345.29 382.269H1285.45V328.506H1345.29V382.269ZM1346.21 383.181V436.944H1406.05V383.181H1346.21ZM1406.05 382.269H1346.21V328.506H1406.05V382.269ZM1406.96 383.181V436.944H1466.79V383.181H1406.96ZM1466.79 382.269H1406.96V328.506H1466.79V382.269ZM1466.79 1203.31V1257.07H1406.96V1203.31H1466.79ZM1406.05 1203.31V1257.07H1346.21V1203.31H1406.05ZM1345.29 1203.31V1257.07H1285.45V1203.31H1345.29ZM1284.54 1203.31V1257.07H1224.71V1203.31H1284.54ZM1223.8 1203.31V1257.07H1163.96V1203.31H1223.8ZM1163.04 1203.31V1257.07H1103.2V1203.31H1163.04ZM1102.29 1203.31V1257.07H1042.46V1203.31H1102.29ZM1041.55 1203.31V1257.07H981.706V1203.31H1041.55ZM980.794 1203.31V1257.07H920.955V1203.31H980.794ZM920.044 1203.31V1257.07H860.206V1203.31H920.044ZM859.295 1203.31V1257.07H799.456V1203.31H859.295ZM798.544 1203.31V1257.07H738.705V1203.31H798.544ZM737.794 1203.31V1257.07H677.956V1203.31H737.794ZM677.045 1203.31V1257.07H617.206V1203.31H677.045ZM616.294 1203.31V1257.07H556.455V1203.31H616.294ZM555.544 1203.31V1257.07H495.706V1203.31H555.544ZM494.795 1203.31V1257.07H434.956V1203.31H494.795ZM434.044 1203.31V1257.07H374.205V1203.31H434.044ZM373.294 1203.31V1257.07H313.456V1203.31H373.294ZM312.545 1203.31V1257.07H252.706V1203.31H312.545ZM251.794 1203.31V1257.07H191.955V1203.31H251.794ZM191.044 1203.31V1257.07H131.206V1203.31H191.044ZM1466.79 875.256V929.019H1406.96V875.256H1466.79ZM1406.05 875.256V929.019H1346.21V875.256H1406.05ZM1406.05 929.931H1346.21V983.694H1406.05V929.931ZM1345.29 875.256V929.019H1285.45V875.256H1345.29ZM1345.29 929.931H1285.45V983.694H1345.29V929.931ZM1284.54 875.256V929.019H1224.71V875.256H1284.54ZM1284.54 929.931H1224.71V983.694H1284.54V929.931ZM1223.8 875.256V929.019H1163.96V875.256H1223.8ZM1223.8 929.931H1163.96V983.694H1223.8V929.931ZM1163.04 875.256V929.019H1103.2V875.256H1163.04ZM1163.04 929.931H1103.2V983.694H1163.04V929.931ZM1102.29 875.256V929.019H1042.46V875.256H1102.29ZM1102.29 929.931H1042.46V983.694H1102.29V929.931ZM1041.55 875.256V929.019H981.706V875.256H1041.55ZM1041.55 929.931H981.706V983.694H1041.55V929.931ZM980.794 875.256V929.019H920.955V875.256H980.794ZM980.794 929.931H920.955V983.694H980.794V929.931ZM920.044 875.256V929.019H860.206V875.256H920.044ZM920.044 929.931H860.206V983.694H920.044V929.931ZM859.295 875.256V929.019H799.456V875.256H859.295ZM859.295 929.931H799.456V983.694H859.295V929.931ZM798.544 875.256V929.019H738.705V875.256H798.544ZM798.544 929.931H738.705V983.694H798.544V929.931ZM737.794 875.256V929.019H677.956V875.256H737.794ZM737.794 929.931H677.956V983.694H737.794V929.931ZM677.045 875.256V929.019H617.206V875.256H677.045ZM677.045 929.931H617.206V983.694H677.045V929.931ZM616.294 875.256V929.019H556.455V875.256H616.294ZM616.294 929.931H556.455V983.694H616.294V929.931ZM555.544 875.256V929.019H495.706V875.256H555.544ZM555.544 929.931H495.706V983.694H555.544V929.931ZM494.795 875.256V929.019H434.956V875.256H494.795ZM494.795 929.931H434.956V983.694H494.795V929.931ZM434.044 875.256V929.019H374.205V875.256H434.044ZM434.044 929.931H374.205V983.694H434.044V929.931ZM373.294 875.256V929.019H313.456V875.256H373.294ZM373.294 929.931H313.456V983.694H373.294V929.931ZM312.545 875.256V929.019H252.706V875.256H312.545ZM312.545 929.931H252.706V983.694H312.545V929.931ZM251.794 875.256V929.019H191.955V875.256H251.794ZM251.794 929.931H191.955V983.694H251.794V929.931ZM191.044 875.256V929.019H131.206V875.256H191.044ZM191.044 929.931H131.206V983.694H191.044V929.931ZM1466.79 929.931H1406.96V983.694H1466.79V929.931ZM131.206 601.881V655.644H191.044V601.881H131.206ZM191.044 600.969H131.206V547.206H191.044V600.969ZM191.955 601.881V655.644H251.794V601.881H191.955ZM251.794 600.969H191.955V547.206H251.794V600.969ZM252.706 601.881V655.644H312.545V601.881H252.706ZM312.545 600.969H252.706V547.206H312.545V600.969ZM313.456 601.881V655.644H373.294V601.881H313.456ZM373.294 600.969H313.456V547.206H373.294V600.969ZM374.205 601.881V655.644H434.044V601.881H374.205ZM434.044 600.969H374.205V547.206H434.044V600.969ZM434.956 601.881V655.644H494.795V601.881H434.956ZM494.795 600.969H434.956V547.206H494.795V600.969ZM495.706 601.881V655.644H555.544V601.881H495.706ZM555.544 600.969H495.706V547.206H555.544V600.969ZM556.455 601.881V655.644H616.294V601.881H556.455ZM616.294 600.969H556.455V547.206H616.294V600.969ZM617.206 601.881V655.644H677.045V601.881H617.206ZM677.045 600.969H617.206V547.206H677.045V600.969ZM677.956 601.881V655.644H737.794V601.881H677.956ZM737.794 600.969H677.956V547.206H737.794V600.969ZM738.705 601.881V655.644H798.544V601.881H738.705ZM798.544 600.969H738.705V547.206H798.544V600.969ZM799.456 601.881V655.644H859.295V601.881H799.456ZM859.295 600.969H799.456V547.206H859.295V600.969ZM860.206 601.881V655.644H920.044V601.881H860.206ZM920.044 600.969H860.206V547.206H920.044V600.969ZM920.955 601.881V655.644H980.794V601.881H920.955ZM980.794 600.969H920.955V547.206H980.794V600.969ZM981.706 601.881V655.644H1041.55V601.881H981.706ZM1041.55 600.969H981.706V547.206H1041.55V600.969ZM1042.46 601.881V655.644H1102.29V601.881H1042.46ZM1102.29 600.969H1042.46V547.206H1102.29V600.969ZM1103.2 601.881V655.644H1163.04V601.881H1103.2ZM1163.04 600.969H1103.2V547.206H1163.04V600.969ZM1163.96 601.881V655.644H1223.8V601.881H1163.96ZM1223.8 600.969H1163.96V547.206H1223.8V600.969ZM1224.71 601.881V655.644H1284.54V601.881H1224.71ZM1284.54 600.969H1224.71V547.206H1284.54V600.969ZM1285.45 601.881V655.644H1345.29V601.881H1285.45ZM1345.29 600.969H1285.45V547.206H1345.29V600.969ZM1346.21 601.881V655.644H1406.05V601.881H1346.21ZM1406.05 600.969H1346.21V547.206H1406.05V600.969ZM1406.96 601.881V655.644H1466.79V601.881H1406.96ZM1466.79 600.969H1406.96V547.206H1466.79V600.969ZM131.206 218.244V164.481H191.044V218.244H131.206ZM191.955 218.244V164.481H251.794V218.244H191.955ZM191.955 163.569H251.794V109.806H191.955V163.569ZM252.706 218.244V164.481H312.545V218.244H252.706ZM252.706 163.569H312.545V109.806H252.706V163.569ZM313.456 218.244V164.481H373.294V218.244H313.456ZM313.456 163.569H373.294V109.806H313.456V163.569ZM374.205 218.244V164.481H434.044V218.244H374.205ZM374.205 163.569H434.044V109.806H374.205V163.569ZM434.956 218.244V164.481H494.795V218.244H434.956ZM434.956 163.569H494.795V109.806H434.956V163.569ZM495.706 218.244V164.481H555.544V218.244H495.706ZM495.706 163.569H555.544V109.806H495.706V163.569ZM556.455 218.244V164.481H616.294V218.244H556.455ZM556.455 163.569H616.294V109.806H556.455V163.569ZM617.206 218.244V164.481H677.045V218.244H617.206ZM617.206 163.569H677.045V109.806H617.206V163.569ZM677.956 218.244V164.481H737.794V218.244H677.956ZM677.956 163.569H737.794V109.806H677.956V163.569ZM738.705 218.244V164.481H798.544V218.244H738.705ZM738.705 163.569H798.544V109.806H738.705V163.569ZM799.456 218.244V164.481H859.295V218.244H799.456ZM799.456 163.569H859.295V109.806H799.456V163.569ZM860.206 218.244V164.481H920.044V218.244H860.206ZM860.206 163.569H920.044V109.806H860.206V163.569ZM920.955 218.244V164.481H980.794V218.244H920.955ZM920.955 163.569H980.794V109.806H920.955V163.569ZM981.706 218.244V164.481H1041.55V218.244H981.706ZM981.706 163.569H1041.55V109.806H981.706V163.569ZM1042.46 218.244V164.481H1102.29V218.244H1042.46ZM1042.46 163.569H1102.29V109.806H1042.46V163.569ZM1103.2 218.244V164.481H1163.04V218.244H1103.2ZM1103.2 163.569H1163.04V109.806H1103.2V163.569ZM1163.96 218.244V164.481H1223.8V218.244H1163.96ZM1163.96 163.569H1223.8V109.806H1163.96V163.569ZM1224.71 218.244V164.481H1284.54V218.244H1224.71ZM1224.71 163.569H1284.54V109.806H1224.71V163.569ZM1285.45 218.244V164.481H1345.29V218.244H1285.45ZM1285.45 163.569H1345.29V109.806H1285.45V163.569ZM1346.21 218.244V164.481H1406.05V218.244H1346.21ZM1346.21 163.569H1406.05V109.806H1346.21V163.569ZM1406.96 218.244V164.481H1466.79V218.244H1406.96ZM1406.96 163.569H1466.79V109.806H1406.96V163.569ZM131.206 163.569H191.044V109.806H131.206V163.569ZM131.206 1039.28V1093.04H191.044V1039.28H131.206ZM191.044 1038.37H131.206V984.606H191.044V1038.37ZM191.955 1039.28V1093.04H251.794V1039.28H191.955ZM251.794 1038.37H191.955V984.606H251.794V1038.37ZM252.706 1039.28V1093.04H312.545V1039.28H252.706ZM312.545 1038.37H252.706V984.606H312.545V1038.37ZM313.456 1039.28V1093.04H373.294V1039.28H313.456ZM373.294 1038.37H313.456V984.606H373.294V1038.37ZM374.205 1039.28V1093.04H434.044V1039.28H374.205ZM434.044 1038.37H374.205V984.606H434.044V1038.37ZM434.956 1039.28V1093.04H494.795V1039.28H434.956ZM494.795 1038.37H434.956V984.606H494.795V1038.37ZM495.706 1039.28V1093.04H555.544V1039.28H495.706ZM555.544 1038.37H495.706V984.606H555.544V1038.37ZM556.455 1039.28V1093.04H616.294V1039.28H556.455ZM616.294 1038.37H556.455V984.606H616.294V1038.37ZM617.206 1039.28V1093.04H677.045V1039.28H617.206ZM677.045 1038.37H617.206V984.606H677.045V1038.37ZM677.956 1039.28V1093.04H737.794V1039.28H677.956ZM737.794 1038.37H677.956V984.606H737.794V1038.37ZM738.705 1039.28V1093.04H798.544V1039.28H738.705ZM798.544 1038.37H738.705V984.606H798.544V1038.37ZM799.456 1039.28V1093.04H859.295V1039.28H799.456ZM859.295 1038.37H799.456V984.606H859.295V1038.37ZM860.206 1039.28V1093.04H920.044V1039.28H860.206ZM920.044 1038.37H860.206V984.606H920.044V1038.37ZM920.955 1039.28V1093.04H980.794V1039.28H920.955ZM980.794 1038.37H920.955V984.606H980.794V1038.37ZM981.706 1039.28V1093.04H1041.55V1039.28H981.706ZM1041.55 1038.37H981.706V984.606H1041.55V1038.37ZM1042.46 1039.28V1093.04H1102.29V1039.28H1042.46ZM1102.29 1038.37H1042.46V984.606H1102.29V1038.37ZM1103.2 1039.28V1093.04H1163.04V1039.28H1103.2ZM1163.04 1038.37H1103.2V984.606H1163.04V1038.37ZM1163.96 1039.28V1093.04H1223.8V1039.28H1163.96ZM1223.8 1038.37H1163.96V984.606H1223.8V1038.37ZM1224.71 1039.28V1093.04H1284.54V1039.28H1224.71ZM1284.54 1038.37H1224.71V984.606H1284.54V1038.37ZM1285.45 1039.28V1093.04H1345.29V1039.28H1285.45ZM1345.29 1038.37H1285.45V984.606H1345.29V1038.37ZM1346.21 1039.28V1093.04H1406.05V1039.28H1346.21ZM1406.05 1038.37H1346.21V984.606H1406.05V1038.37ZM1406.96 1039.28V1093.04H1466.79V1039.28H1406.96ZM1466.79 1038.37H1406.96V984.606H1466.79V1038.37ZM1466.79 656.556V710.319H1406.96V656.556H1466.79ZM1406.05 656.556V710.319H1346.21V656.556H1406.05ZM1406.05 711.231H1346.21V764.994H1406.05V711.231ZM1345.29 656.556V710.319H1285.45V656.556H1345.29ZM1345.29 711.231H1285.45V764.994H1345.29V711.231ZM1284.54 656.556V710.319H1224.71V656.556H1284.54ZM1284.54 711.231H1224.71V764.994H1284.54V711.231ZM1223.8 656.556V710.319H1163.96V656.556H1223.8ZM1223.8 711.231H1163.96V764.994H1223.8V711.231ZM1163.04 656.556V710.319H1103.2V656.556H1163.04ZM1163.04 711.231H1103.2V764.994H1163.04V711.231ZM1102.29 656.556V710.319H1042.46V656.556H1102.29ZM1102.29 711.231H1042.46V764.994H1102.29V711.231ZM1041.55 656.556V710.319H981.706V656.556H1041.55ZM1041.55 711.231H981.706V764.994H1041.55V711.231ZM980.794 656.556V710.319H920.955V656.556H980.794ZM980.794 711.231H920.955V764.994H980.794V711.231ZM920.044 656.556V710.319H860.206V656.556H920.044ZM920.044 711.231H860.206V764.994H920.044V711.231ZM859.295 656.556V710.319H799.456V656.556H859.295ZM859.295 711.231H799.456V764.994H859.295V711.231ZM798.544 656.556V710.319H738.705V656.556H798.544ZM798.544 711.231H738.705V764.994H798.544V711.231ZM737.794 656.556V710.319H677.956V656.556H737.794ZM737.794 711.231H677.956V764.994H737.794V711.231ZM677.045 656.556V710.319H617.206V656.556H677.045ZM677.045 711.231H617.206V764.994H677.045V711.231ZM616.294 656.556V710.319H556.455V656.556H616.294ZM616.294 711.231H556.455V764.994H616.294V711.231ZM555.544 656.556V710.319H495.706V656.556H555.544ZM555.544 711.231H495.706V764.994H555.544V711.231ZM494.795 656.556V710.319H434.956V656.556H494.795ZM494.795 711.231H434.956V764.994H494.795V711.231ZM434.044 656.556V710.319H374.205V656.556H434.044ZM434.044 711.231H374.205V764.994H434.044V711.231ZM373.294 656.556V710.319H313.456V656.556H373.294ZM373.294 711.231H313.456V764.994H373.294V711.231ZM312.545 656.556V710.319H252.706V656.556H312.545ZM312.545 711.231H252.706V764.994H312.545V711.231ZM251.794 656.556V710.319H191.955V656.556H251.794ZM251.794 711.231H191.955V764.994H251.794V711.231ZM191.044 656.556V710.319H131.206V656.556H191.044ZM191.044 711.231H131.206V764.994H191.044V711.231ZM1466.79 711.231H1406.96V764.994H1466.79V711.231ZM1466.79 272.919V219.156H1406.96V272.919H1466.79ZM1406.96 273.831H1466.79V327.594H1406.96V273.831ZM1406.05 272.919V219.156H1346.21V272.919H1406.05ZM1346.21 273.831H1406.05V327.594H1346.21V273.831ZM1345.29 272.919V219.156H1285.45V272.919H1345.29ZM1285.45 273.831H1345.29V327.594H1285.45V273.831ZM1284.54 272.919V219.156H1224.71V272.919H1284.54ZM1224.71 273.831H1284.54V327.594H1224.71V273.831ZM1223.8 272.919V219.156H1163.96V272.919H1223.8ZM1163.96 273.831H1223.8V327.594H1163.96V273.831ZM1163.04 272.919V219.156H1103.2V272.919H1163.04ZM1103.2 273.831H1163.04V327.594H1103.2V273.831ZM1102.29 272.919V219.156H1042.46V272.919H1102.29ZM1042.46 273.831H1102.29V327.594H1042.46V273.831ZM1041.55 272.919V219.156H981.706V272.919H1041.55ZM981.706 273.831H1041.55V327.594H981.706V273.831ZM980.794 272.919V219.156H920.955V272.919H980.794ZM920.955 273.831H980.794V327.594H920.955V273.831ZM920.044 272.919V219.156H860.206V272.919H920.044ZM860.206 273.831H920.044V327.594H860.206V273.831ZM859.295 272.919V219.156H799.456V272.919H859.295ZM799.456 273.831H859.295V327.594H799.456V273.831ZM798.544 272.919V219.156H738.705V272.919H798.544ZM738.705 273.831H798.544V327.594H738.705V273.831ZM737.794 272.919V219.156H677.956V272.919H737.794ZM677.956 273.831H737.794V327.594H677.956V273.831ZM677.045 272.919V219.156H617.206V272.919H677.045ZM617.206 273.831H677.045V327.594H617.206V273.831ZM616.294 272.919V219.156H556.455V272.919H616.294ZM556.455 273.831H616.294V327.594H556.455V273.831ZM555.544 272.919V219.156H495.706V272.919H555.544ZM495.706 273.831H555.544V327.594H495.706V273.831ZM494.795 272.919V219.156H434.956V272.919H494.795ZM434.956 273.831H494.795V327.594H434.956V273.831ZM434.044 272.919V219.156H374.205V272.919H434.044ZM374.205 273.831H434.044V327.594H374.205V273.831ZM373.294 272.919V219.156H313.456V272.919H373.294ZM313.456 273.831H373.294V327.594H313.456V273.831ZM312.545 272.919V219.156H252.706V272.919H312.545ZM252.706 273.831H312.545V327.594H252.706V273.831ZM251.794 272.919V219.156H191.955V272.919H251.794ZM191.955 273.831H251.794V327.594H191.955V273.831ZM191.044 272.919V219.156H131.206V272.919H191.044ZM131.206 273.831H191.044V327.594H131.206V273.831ZM1466.79 437.856V491.619H1406.96V437.856H1466.79ZM1406.05 437.856V491.619H1346.21V437.856H1406.05ZM1406.05 492.531H1346.21V546.294H1406.05V492.531ZM1345.29 437.856V491.619H1285.45V437.856H1345.29ZM1345.29 492.531H1285.45V546.294H1345.29V492.531ZM1284.54 437.856V491.619H1224.71V437.856H1284.54ZM1284.54 492.531H1224.71V546.294H1284.54V492.531ZM1223.8 437.856V491.619H1163.96V437.856H1223.8ZM1223.8 492.531H1163.96V546.294H1223.8V492.531ZM1163.04 437.856V491.619H1103.2V437.856H1163.04ZM1163.04 492.531H1103.2V546.294H1163.04V492.531ZM1102.29 437.856V491.619H1042.46V437.856H1102.29ZM1102.29 492.531H1042.46V546.294H1102.29V492.531ZM1041.55 437.856V491.619H981.706V437.856H1041.55ZM1041.55 492.531H981.706V546.294H1041.55V492.531ZM980.794 437.856V491.619H920.955V437.856H980.794ZM980.794 492.531H920.955V546.294H980.794V492.531ZM920.044 437.856V491.619H860.206V437.856H920.044ZM920.044 492.531H860.206V546.294H920.044V492.531ZM859.295 437.856V491.619H799.456V437.856H859.295ZM859.295 492.531H799.456V546.294H859.295V492.531ZM798.544 437.856V491.619H738.705V437.856H798.544ZM798.544 492.531H738.705V546.294H798.544V492.531ZM737.794 437.856V491.619H677.956V437.856H737.794ZM737.794 492.531H677.956V546.294H737.794V492.531ZM677.045 437.856V491.619H617.206V437.856H677.045ZM677.045 492.531H617.206V546.294H677.045V492.531ZM616.294 437.856V491.619H556.455V437.856H616.294ZM616.294 492.531H556.455V546.294H616.294V492.531ZM555.544 437.856V491.619H495.706V437.856H555.544ZM555.544 492.531H495.706V546.294H555.544V492.531ZM494.795 437.856V491.619H434.956V437.856H494.795ZM494.795 492.531H434.956V546.294H494.795V492.531ZM434.044 437.856V491.619H374.205V437.856H434.044ZM434.044 492.531H374.205V546.294H434.044V492.531ZM373.294 437.856V491.619H313.456V437.856H373.294ZM373.294 492.531H313.456V546.294H373.294V492.531ZM312.545 437.856V491.619H252.706V437.856H312.545ZM312.545 492.531H252.706V546.294H312.545V492.531ZM251.794 437.856V491.619H191.955V437.856H251.794ZM251.794 492.531H191.955V546.294H251.794V492.531ZM191.044 437.856V491.619H131.206V437.856H191.044ZM191.044 492.531H131.206V546.294H191.044V492.531ZM1466.79 492.531H1406.96V546.294H1466.79V492.531ZM1466.79 55.1306H1406.96V108.894H1466.79V55.1306ZM1406.05 55.1306H1346.21V108.894H1406.05V55.1306ZM1345.29 55.1306H1285.45V108.894H1345.29V55.1306ZM1284.54 55.1306H1224.71V108.894H1284.54V55.1306ZM1223.8 55.1306H1163.96V108.894H1223.8V55.1306ZM1163.04 55.1306H1103.2V108.894H1163.04V55.1306ZM1102.29 55.1306H1042.46V108.894H1102.29V55.1306ZM1041.55 55.1306H981.706V108.894H1041.55V55.1306ZM980.794 55.1306H920.955V108.894H980.794V55.1306ZM920.044 55.1306H860.206V108.894H920.044V55.1306ZM859.295 55.1306H799.456V108.894H859.295V55.1306ZM798.544 55.1306H738.705V108.894H798.544V55.1306ZM737.794 55.1306H677.956V108.894H737.794V55.1306ZM677.045 55.1306H617.206V108.894H677.045V55.1306ZM616.294 55.1306H556.455V108.894H616.294V55.1306ZM555.544 55.1306H495.706V108.894H555.544V55.1306ZM494.795 55.1306H434.956V108.894H494.795V55.1306ZM434.044 55.1306H374.205V108.894H434.044V55.1306ZM373.294 55.1306L313.456 55.1305V108.894H373.294V55.1306ZM312.545 55.1305H252.706V108.894H312.545V55.1305ZM251.794 55.1305H191.955V108.894H251.794V55.1305ZM191.044 55.1305H131.206V108.894H191.044V55.1305Z" fill="#262626"/>
</g>
<g filter="url(#filter0_f_276_29)">
<path d="M340.317 -269.585C325.688 -302.951 286.78 -318.14 253.414 -303.511C220.048 -288.882 204.859 -249.975 219.488 -216.609L507.355 439.968C521.984 473.334 560.892 488.524 594.258 473.895C627.624 459.266 642.813 420.358 628.184 386.992L340.317 -269.585Z" fill="url(#paint1_radial_276_29)" fill-opacity="0.75"/>
</g>
</g>
</g>
<defs>
<filter id="filter0_f_276_29" x="25.0199" y="-497.978" width="797.633" height="1166.34" filterUnits="userSpaceOnUse" color-interpolation-filters="sRGB">
<feFlood flood-opacity="0" result="BackgroundImageFix"/>
<feBlend mode="normal" in="SourceGraphic" in2="BackgroundImageFix" result="shape"/>
<feGaussianBlur stdDeviation="94.45" result="effect1_foregroundBlur_276_29"/>
</filter>
<radialGradient id="paint0_radial_276_29" cx="0" cy="0" r="1" gradientUnits="userSpaceOnUse" gradientTransform="translate(799 -7.06394e-05) rotate(90) scale(592.566 698.107)">
<stop stop-color="white"/>
<stop offset="0.991144" stop-color="white" stop-opacity="0"/>
</radialGradient>
<radialGradient id="paint1_radial_276_29" cx="0" cy="0" r="1" gradientUnits="userSpaceOnUse" gradientTransform="translate(423.836 85.1917) rotate(66.3256) scale(424.421 65.5994)">
<stop stop-color="#87D4FF"/>
<stop offset="1" stop-color="#87D4FF" stop-opacity="0"/>
</radialGradient>
<clipPath id="clip0_276_29">
<rect width="1599" height="800" fill="white"/>
</clipPath>
</defs>
</svg>
